<?xml version="1.0" encoding="UTF-8" standalone="no"?>
<!-- Created with Inkscape (http://www.inkscape.org/) -->

<svg
   width="400"
   height="400"
   viewBox="0 0 400 400"
   version="1.1"
   id="svg1"
   inkscape:version="1.3.2 (091e20ef0f, 2023-11-25)"
   sodipodi:docname="horsetooth_monochrome.svg"
   xml:space="preserve"
   xmlns:inkscape="http://www.inkscape.org/namespaces/inkscape"
   xmlns:sodipodi="http://sodipodi.sourceforge.net/DTD/sodipodi-0.dtd"
   xmlns="http://www.w3.org/2000/svg"
   xmlns:svg="http://www.w3.org/2000/svg"><sodipodi:namedview
     id="namedview1"
     pagecolor="#ffffff"
     bordercolor="#999999"
     borderopacity="1"
     inkscape:showpageshadow="2"
     inkscape:pageopacity="0"
     inkscape:pagecheckerboard="0"
     inkscape:deskcolor="#d1d1d1"
     inkscape:document-units="px"
     inkscape:zoom="2"
     inkscape:cx="63.75"
     inkscape:cy="290.25"
     inkscape:window-width="3052"
     inkscape:window-height="1662"
     inkscape:window-x="0"
     inkscape:window-y="0"
     inkscape:window-maximized="0"
     inkscape:current-layer="layer5" /><defs
     id="defs1"><filter
       id="mask-powermask-path-effect186_inverse"
       inkscape:label="filtermask-powermask-path-effect186"
       style="color-interpolation-filters:sRGB"
       height="100"
       width="100"
       x="-50"
       y="-50"><feColorMatrix
         id="mask-powermask-path-effect186_primitive1"
         values="1"
         type="saturate"
         result="fbSourceGraphic" /><feColorMatrix
         id="mask-powermask-path-effect186_primitive2"
         values="-1 0 0 0 1 0 -1 0 0 1 0 0 -1 0 1 0 0 0 1 0 "
         in="fbSourceGraphic" /></filter><filter
       id="mask-powermask-path-effect222_inverse"
       inkscape:label="filtermask-powermask-path-effect222"
       style="color-interpolation-filters:sRGB"
       height="100"
       width="100"
       x="-50"
       y="-50"><feColorMatrix
         id="mask-powermask-path-effect222_primitive1"
         values="1"
         type="saturate"
         result="fbSourceGraphic" /><feColorMatrix
         id="mask-powermask-path-effect222_primitive2"
         values="-1 0 0 0 1 0 -1 0 0 1 0 0 -1 0 1 0 0 0 1 0 "
         in="fbSourceGraphic" /></filter><clipPath
       clipPathUnits="userSpaceOnUse"
       id="clipPath313"><path
         id="path313"
         clip-path="none"
         style="display:inline;fill:#aaaaff;stroke-width:5"
         inkscape:label="sky"
         d="M 399.78046,200 A 199.78046,199.93582 0 0 1 200,399.93582 199.78046,199.93582 0 0 1 0.21954346,200 199.78046,199.93582 0 0 1 200,0.06417847 199.78046,199.93582 0 0 1 399.78046,200 Z" /></clipPath><clipPath
       clipPathUnits="userSpaceOnUse"
       id="clipPath39"><ellipse
         style="display:inline;fill:none;fill-opacity:1;stroke:none;stroke-width:1.50222;stroke-dasharray:none;stroke-dashoffset:0;stroke-opacity:1"
         id="ellipse39"
         inkscape:label="sky"
         ry="151.56406"
         rx="148.68163"
         cy="109.38391"
         cx="202.36928"
         clip-path="none" /></clipPath></defs><g
     inkscape:groupmode="layer"
     id="layer5"
     inkscape:label="bg" /><g
     inkscape:label="Layer 1"
     inkscape:groupmode="layer"
     id="layer1"><g
       id="g1"
       inkscape:label="mountain"
       style="display:inline;opacity:1;fill:#e9c6af"
       clip-path="url(#clipPath39)"
       transform="matrix(1.3220422,0,0,1.2979084,-67.464314,57.953232)"><path
         style="fill:#6c5d53;stroke-width:5"
         d="m -13.872827,219.18791 91.12148,-12.93784 82.509137,-33.78369 107.75507,-5.62923 116.17543,-26.34663 56.35724,-17.23987 -21.13724,297.79277 -486.941077,2.64198 z"
         id="path20"
         inkscape:label="grass" /><path
         style="display:inline;opacity:1;fill:#917c6f;stroke-width:5"
         d="m 27.364024,201.47519 c 4.395378,-3.76257 10.277581,-1.81106 15.271182,-8.25091 4.51705,-5.82528 4.612679,-14.22768 8.82479,-20.27712 10.255546,-14.72903 26.591536,-24.29138 38.045035,-38.10941 6.361519,-7.67483 10.012651,-13.7653 16.577969,-19.02269 4.39384,-3.51851 10.02948,-5.13421 14.84822,-8.04377 3.57377,-2.15785 6.47509,-5.56491 10.40717,-6.96738 2.08597,-0.74401 6.61391,-0.63201 6.61391,-0.63201 0,0 2.55319,1.65035 3.78272,1.1704 1.98774,-0.77592 3.21625,-5.534808 3.21625,-5.534808 0,0 11.33082,-4.296394 16.58452,-2.399313 7.16017,2.585496 8.3128,2.023497 10.99163,4.985166 1.18838,1.313853 1.6115,4.683045 1.6115,4.683045 0,0 0.24954,-3.185989 0.83539,-4.598411 0.5231,-1.261121 0.96764,-2.635806 2.26556,-3.204826 3.10093,-1.359477 7.82029,-0.391647 10.92244,0.965044 2.02072,0.883736 4.62409,4.452633 4.62409,4.452633 l 0.0364,18.83592 c 0,0 2.57306,2.00451 3.34031,3.39415 1.21125,2.19381 1.72517,7.31732 1.72517,7.31732 0,0 -0.57327,-8.20381 -0.11938,-12.2681 0.7778,-6.96462 4.83725,-20.459701 4.83725,-20.459701 0,0 3.58331,-1.960417 5.55236,-2.025957 2.52598,-0.08408 5.36144,0.474187 7.27986,2.119588 0.78775,0.675641 1.31553,2.82183 1.31553,2.82183 0,0 0.79261,-4.400554 2.43794,-5.599181 2.77716,-2.023167 10.25735,-1.019415 10.25735,-1.019415 0,0 3.6304,1.296437 4.51188,2.839382 1.36203,2.384102 0.23876,8.233744 0.23876,8.233744 0,0 1.01222,4.2063 1.10252,6.35408 0.14826,3.52634 -0.92813,10.54761 -0.92813,10.54761 l 2.40165,1.47821 c 0,0 0.35701,-9.11318 1.27925,-13.55787 1.18388,-5.70564 0.61133,-13.326241 5.41776,-16.620802 2.05088,-1.405771 10.89924,1.093723 10.89924,1.093723 0,0 4.02501,0.786606 5.84485,1.03386 6.14364,0.834709 12.25773,-0.730448 18.17166,0.594166 7.07661,1.585035 14.35124,4.047468 19.97,8.632263 1.20148,0.98038 2.66499,3.81316 2.66499,3.81316 0,0 2.56006,-0.34572 3.78858,-0.0527 3.0811,0.7349 4.84455,5.3777 7.57231,7.59367 2.79472,2.27037 9.01396,5.59904 9.01396,5.59904 0,0 4.49283,3.28679 7.09202,4.42878 5.33352,2.34334 10.96801,4.30331 16.7554,4.9695 11.19794,1.28899 22.50123,-1.38747 33.75657,-1.99786 9.90098,-0.53694 24.2881,-26.07289 29.71052,-1.46417 2.71121,12.30436 -5.53879,8.99134 -36.66358,25.56793 -22.22731,11.83792 -56.88154,16.43068 -75.75155,23.57875 -14.68224,5.56172 -30.56273,9.68753 -44.45083,11.43415 -16.76642,2.10861 -30.45059,-1.98018 -47.25924,-0.48239 -21.82408,1.94471 -44.92956,-5.55207 -66.04852,0.28419 -19.9687,5.51838 -36.72821,20.09797 -56.799,25.23265 -24.591596,6.29123 -82.31039942,7.82628 -82.31039942,7.82628 l 0.46787779,-5.72012 c 0,0 4.90666143,-1.20535 10.29203263,-2.65703 5.385371,-1.45168 7.8386,-0.69879 10.990836,-2.7836 2.840006,-1.8783 3.596767,-5.91644 6.183417,-8.13069 z"
         id="path1"
         sodipodi:nodetypes="asssaascscsscsssccscscsscscscsccsscsascsscssacssssssccsaa"
         inkscape:label="mountain" /><path
         style="display:inline;opacity:1;fill:#483e37;stroke-width:5"
         d="m 172.96602,99.007613 -1.51289,5.039327 c 0,0 1.27925,6.37908 0.62517,9.55582 -0.27579,1.33946 -1.61911,3.70247 -1.61911,3.70247 l 2.04085,1.56105 -2.01064,10.70267 2.61417,-5.25978 c 0,0 1.20233,1.17995 1.46443,1.94919 0.35,1.02721 0.0405,3.25535 0.0405,3.25535 l 1.35953,3.90687 c 0,0 0.34644,1.68545 0.19511,2.51133 -0.24372,1.33004 -1.72782,3.67018 -1.72782,3.67018 l 2.45858,-2.42733 c 0,0 -0.15206,-1.82323 -0.15683,-2.73707 -0.01,-1.90877 0.26794,-5.72013 0.26794,-5.72013 l -1.37278,-0.77546 c 0,0 0.44679,-2.28909 0.43408,-3.44714 -0.0333,-3.02945 -1.36213,-5.96108 -1.33326,-8.99058 0.0126,-1.31912 0.65504,-3.90294 0.65504,-3.90294 0,0 -0.34913,-2.16425 -0.52965,-3.07348 -0.35823,-1.80428 -0.36615,-3.33015 -0.6255,-5.15127 -0.42441,-2.98011 -1.26692,-4.369077 -1.26692,-4.369077 z"
         id="path2"
         sodipodi:nodetypes="ccsccccsccsccsccsscssc" /><path
         style="opacity:1;fill:#483e37;stroke-width:5"
         d="m 192.8175,119.45348 c 0,0 -0.63405,5.09865 -2.31327,6.58384 -0.3215,0.28436 -0.85709,0.40829 -1.26066,0.26217 -0.47493,-0.17195 -0.94217,-1.18679 -0.94217,-1.18679 l -2.8287,2.19055 c 0,0 1.79376,0.89466 2.28213,1.71024 0.20548,0.34316 0.18097,1.1862 0.18097,1.1862 l 0.79265,0.64328 c 0,0 1.38492,-1.25083 2.18733,-1.10105 1.41401,0.26395 2.89497,3.20015 2.89497,3.20015 0,0 0.82088,2.72842 0.64635,4.10136 -0.12897,1.01454 -1.22072,2.81481 -1.22072,2.81481 0,0 -0.10371,1.6794 -0.29055,2.49587 -0.19062,0.83298 -0.84049,2.42184 -0.84049,2.42184 0,0 1.13922,-1.35895 1.92954,-1.67849 0.69848,-0.28241 1.528,-0.30844 2.25711,-0.11865 0.46163,0.12016 0.81501,0.4965 1.21107,0.76236 0.24581,0.165 0.72257,0.51644 0.72257,0.51644 0,0 -0.62053,-1.28909 -0.73544,-1.98543 -0.20181,-1.22295 0.10284,-3.71703 0.10284,-3.71703 0,0 -0.88291,-1.59802 -1.2333,-2.43896 -0.26973,-0.64734 -0.58805,-1.29902 -0.66464,-1.99611 -0.0637,-0.58 -0.0695,-1.21343 0.17922,-1.74126 0.2422,-0.51402 1.19658,-1.21414 1.19658,-1.21414 0,0 0.68267,1.16146 0.91218,1.79085 0.31759,0.87095 0.38416,1.81496 0.62923,2.70903 0.12339,0.45014 0.19419,0.928 0.42296,1.33484 0.28961,0.51503 0.94067,0.78908 1.16571,1.33542 0.16307,0.39589 0.0819,1.28188 0.0819,1.28188 l -0.6427,1.08393 c 0,0 1.03226,1.68318 1.28598,2.62344 0.36606,1.3566 0.3005,4.20465 0.3005,4.20465 0,0 0.34295,-2.7659 0.62016,-4.13018 0.11743,-0.57795 0.44095,-1.71346 0.44095,-1.71346 0,0 -0.23593,-2.76119 -0.60378,-4.08893 -0.31066,-1.12131 -0.96148,-2.12295 -1.33981,-3.22327 -0.15396,-0.44777 -0.32443,-0.89904 -0.37672,-1.36965 -0.0536,-0.48221 0.0685,-1.45393 0.0685,-1.45393 0,0 -1.00096,-0.16973 -1.25729,-0.44872 -0.99761,-1.0858 -0.80237,-2.7772 -1.20771,-4.1949 -0.32191,-1.12587 -0.3003,-2.2969 -0.84795,-3.33193 -0.92061,-1.73991 -3.9055,-4.12027 -3.9055,-4.12027 z"
         id="path3"
         sodipodi:nodetypes="cssccsccscscscssscscssscssssccscscssscsssc" /><path
         style="fill:#483e37;stroke-width:5"
         d="m 215.37427,104.98926 c 0,0 -1.81668,4.35529 -3.14624,6.28393 -0.53854,0.7812 -1.92554,2.09644 -1.92554,2.09644 l 2.73047,0.79541 0.59131,5.39599 -3.77198,1.47266 c 0,0 -0.0935,1.77097 -0.69897,2.29175 -0.79467,0.68347 -3.11108,0.45703 -3.11108,0.45703 0,0 3.51615,1.1033 4.31836,2.57471 1.43047,2.62378 0.0497,5.99336 -0.3125,8.95971 -0.20702,1.69542 -1.05884,5.01343 -1.05884,5.01343 -0.40421,1.91386 -2.49219,5.31275 -2.49219,5.31275 l 4.34912,-3.53199 c 0,0 0.19586,-0.80568 0.49243,-1.05688 0.42979,-0.36404 1.13384,-0.18196 1.62818,-0.45191 0.5009,-0.27353 1.2771,-1.14038 1.2771,-1.14038 0,0 -0.72655,-5.35733 -0.43531,-8.01806 0.18224,-1.66496 1.04662,-3.19264 1.35132,-4.8396 0.50122,-2.70917 0.38337,-5.50172 0.77246,-8.22925 0.17794,-1.24739 0.71314,-3.71216 0.71314,-3.71216 0,0 -0.71958,-1.45424 -0.89087,-2.23901 -0.52916,-2.42435 -0.38037,-7.43457 -0.38037,-7.43457 z"
         id="path4"
         sodipodi:nodetypes="csccccscsssccsscssscsc" /><path
         style="fill:#483e37;stroke-width:5"
         d="m 232.03012,99.688936 c -0.16074,1.948984 -0.24843,3.912554 -0.60319,5.835704 -0.28261,1.53204 -1.20981,4.51436 -1.20981,4.51436 l -5.54654,-0.67309 c 0,0 -1.96519,6.42106 0.25791,7.71999 1.17543,0.68679 2.56165,-1.03264 3.62289,-1.88533 l 1.64192,-1.31926 c 0,0 0.69399,5.64709 1.13074,8.45766 0.52196,3.35893 1.39719,6.66357 1.77968,10.04122 0.15282,1.34952 0.20406,4.06932 0.20406,4.06932 l -1.65159,-0.81966 -0.46266,6.31562 c 0,0 1.33565,2.88579 2.17536,4.23108 0.43206,0.69219 0.73555,1.59435 1.4641,1.9618 0.86139,0.43445 2.8942,0.0133 2.8942,0.0133 0,0 -1.05428,-5.29331 -1.14853,-7.97861 -0.10264,-2.92449 0.63857,-8.75562 0.63857,-8.75562 l -1.27127,-2.62196 1.23657,-5.52928 c 0,0 -0.10251,-0.48643 -0.28691,-0.6201 -0.60587,-0.43918 -2.16779,-0.69174 -2.16779,-0.69174 0,0 -0.17581,-0.27616 0.23636,-3.80025 0.41218,-3.52409 0.49647,-5.0346 0.31482,-7.78616 -0.0894,-1.35417 -0.24559,-4.57601 -0.4248,-4.86118 -0.84175,-1.33942 0.0666,-3.84379 -0.0491,-5.42939 -0.10611,-1.453228 -0.68988,-3.571561 -0.68988,-3.571561 l -1.19943,-1.002342 c 0,0 -0.79093,3.03642 -0.8857,4.185479 z"
         id="path5"
         sodipodi:nodetypes="ssccsscsscccsscscccsczsssccss" /><path
         style="fill:#483e37;stroke-width:5"
         d="m 111.75854,126.90967 c 0,0 1.68648,1.17603 2.09742,2.06762 0.84687,1.83742 0.0388,4.06957 0.43188,6.0542 0.56983,2.87673 2.7666,8.35157 2.7666,8.35157 0,0 0.0523,2.11087 0.01,3.16504 -0.0263,0.6549 -0.21439,1.30601 -0.16357,1.95947 0.0663,0.85303 0.48737,1.64686 0.60645,2.49414 0.1794,1.27653 0.10218,2.57612 0.15747,3.86401 0.0844,1.96471 0.26587,5.89356 0.26587,5.89356 l -0.8667,-1.08545 c 0,0 0.16378,-2.97138 -0.23755,-4.37598 -0.41644,-1.4575 -1.3359,-2.73309 -2.1897,-3.98559 -0.30914,-0.45349 -1.05347,-1.26539 -1.05347,-1.26539 0,0 0.84691,-1.26928 0.93994,-2 0.33131,-2.60241 -1.45605,-7.73437 -1.45605,-7.73437 0,0 0.51707,-1.65285 0.56982,-2.50879 0.0647,-1.05025 -0.31591,-3.14087 -0.31591,-3.14087 l -1.36402,1.1377 c 0,0 -0.18726,-0.80556 -0.11548,-1.20142 0.10175,-0.56114 0.75122,-1.53711 0.75122,-1.53711 0,0 -1.04324,-1.36694 -1.21362,-2.1814 -0.27227,-1.3015 0.3794,-3.97094 0.3794,-3.97094 z"
         id="path6"
         sodipodi:nodetypes="csscsssaccsscscsccscsc" /><path
         style="fill:#483e37;stroke-width:5"
         d="m 129.99499,130.30151 c 0,0 0.36121,2.16531 -0.35827,2.74097 -0.80581,0.64474 -3.08313,-0.28198 -3.08313,-0.28198 l 0.67602,1.08215 c 0,0 1.31754,0.4372 1.76514,0.92883 0.46581,0.51163 0.44001,1.32276 0.79053,1.91932 0.40862,0.69543 0.75811,1.5919 1.50598,1.89404 0.69099,0.27916 2.21655,-0.29236 2.21655,-0.29236 0,0 -0.15034,-2.27019 -0.39502,-3.37671 -0.21141,-0.95605 -0.44776,-1.93205 -0.92065,-2.78943 -0.34126,-0.61873 -0.74585,-1.26637 -1.34815,-1.63586 -0.24713,-0.15161 -0.849,-0.18897 -0.849,-0.18897 z"
         id="path7"
         sodipodi:nodetypes="csccssscsssc" /><path
         style="fill:#483e37;stroke-width:5"
         d="m 165.32971,139.98902 c -0.48649,1.09373 0.0419,2.46939 -0.44332,3.56367 -0.26272,0.59248 -0.97162,0.89731 -1.26886,1.47325 -0.44919,0.87036 -0.70382,2.85277 -0.70382,2.85277 0,0 1.70107,-1.42032 2.74055,-1.6811 0.64879,-0.16277 2.00324,0.11756 2.00324,0.11756 0,0 0.76166,-1.78591 0.90875,-2.73538 0.14438,-0.93201 -0.0378,-2.82912 -0.0378,-2.82912 l -2.37734,-1.71097 c 0,0 -0.65134,0.56699 -0.8214,0.94932 z"
         id="path8"
         sodipodi:nodetypes="ssscscsccs" /><path
         style="fill:#483e37;stroke-width:5"
         d="m 255.30025,99.626788 -1.29683,5.842092 c 0,0 1.26647,0.89273 1.50157,1.58028 0.59671,1.74511 0.3038,3.8739 -0.55743,5.50477 -0.23525,0.44549 -0.67584,0.82105 -1.15596,0.97365 -0.40139,0.12757 -0.8938,0.10309 -1.25901,-0.10669 -0.32744,-0.18808 -0.65135,-0.92686 -0.65135,-0.92686 0,0 -1.06377,0.90794 -1.32876,1.52901 -0.33233,0.77889 -0.23116,2.52994 -0.23116,2.52994 l -2.6368,4.27389 0.11256,1.30787 1.58149,-0.21993 c 0,0 -0.30084,1.7958 -0.61423,2.64491 -0.17981,0.48719 -0.71798,1.38263 -0.71798,1.38263 l 1.92158,-0.0439 c 0,0 -0.27176,-2.34302 0.20889,-3.35531 0.27108,-0.5709 0.81893,-1.02073 1.39194,-1.28732 0.64013,-0.29781 2.10164,-0.2631 2.10164,-0.2631 0,0 -0.33974,-3.46351 0.24532,-5.04072 0.33182,-0.89454 1.42029,-1.36608 1.75896,-2.25805 0.48985,-1.29011 0.11885,-2.75921 0.26465,-4.13146 0.15485,-1.45742 0.0851,-2.99544 0.6472,-4.34899 0.0838,-0.20187 0.30627,-0.32483 0.39136,-0.52618 0.49823,-1.17899 0.28688,-2.55281 0.61233,-3.79069 0.30983,-1.178469 1.2673,-3.428847 1.2673,-3.428847 l -2.14721,-1.709244 c 0,0 0.3128,3.046911 -0.70366,3.880628 -0.18209,0.149353 -0.70641,-0.01238 -0.70641,-0.01238 z"
         id="path9"
         sodipodi:nodetypes="ccsssscsccccsccsscssssssccsc" /><path
         style="fill:#483e37;stroke-width:5"
         d="m 268.75962,116.53866 c 0,0 -0.30404,2.51135 -0.53327,3.75443 -0.29246,1.58599 0.15736,3.67498 -1.07291,4.71773 -0.55914,0.47391 -1.58884,-0.28237 -2.19504,0.12964 -1.04558,0.71064 -0.6905,2.56131 -1.60135,3.438 -0.69595,0.66985 -1.86137,0.5965 -2.67167,1.12229 -0.81129,0.52644 -1.46462,1.27022 -2.11597,1.98511 -0.60589,0.66499 -0.91315,1.62358 -1.6559,2.13116 -0.66477,0.45429 -2.31554,0.68778 -2.31554,0.68778 0,0 -0.72787,4.02114 -1.32461,5.97035 -0.24989,0.81625 -0.77786,1.54407 -0.93999,2.38217 -0.17795,0.9199 0.018,1.87454 -0.0178,2.81082 -0.0333,0.87221 -0.18317,2.61212 -0.18317,2.61212 l 3.67641,0.23409 c 0,0 -0.0957,-1.9668 -0.34683,-2.91129 -0.22228,-0.83615 -0.59745,-1.63093 -1.01335,-2.3896 -0.2635,-0.48066 -0.93102,-1.35551 -0.93102,-1.35551 0,0 1.13864,-0.64214 1.48293,-1.16908 0.48496,-0.74223 0.2674,-1.78392 0.66912,-2.57431 0.41238,-0.81137 0.51565,-1.22369 1.72996,-2.11251 1.21431,-0.88882 4.49325,-3.07131 5.85141,-2.3309 1.35816,0.74041 0.57349,2.927 0.57349,2.927 0,0 1.168,1.53744 2.03104,1.83009 1.1597,0.39325 2.43927,-0.2262 3.66207,-0.29193 0.52822,-0.0284 1.58633,-0.0442 1.58633,-0.0442 0,0 -0.12202,-1.33258 0.10203,-1.94023 0.37047,-1.00476 1.95438,-2.5498 1.95438,-2.5498 0,0 -0.38368,-1.46717 -0.96468,-1.84873 0,0 -0.61042,-0.2786 -0.81068,-0.5324 -0.28278,-0.35838 -0.35681,-0.84467 -0.4649,-1.28819 -0.29228,-1.19928 -0.0704,-2.50892 -0.48649,-3.67105 -0.21566,-0.60229 -0.8469,-1.01234 -1.01284,-1.63018 -0.70258,-2.61584 0.25308,-8.12171 0.25308,-8.12171 z"
         id="path10"
         sodipodi:nodetypes="cssssssscsssccsscsszzcsscscssssscc" /><path
         style="fill:#483e37;stroke-width:5"
         d="m 285.59812,130.7842 -1.43839,4.14769 c 0,0 0.34298,0.74851 0.69054,0.892 l 1.7265,0.7128 c 0,0 1.8542,-1.30834 2.22007,-2.31225 0.2599,-0.71312 -0.15036,-2.27203 -0.15036,-2.27203 z"
         id="path11"
         sodipodi:nodetypes="ccscscc" /><path
         style="fill:#483e37;stroke-width:5"
         d="m 297.2868,103.59244 c 0,0 0.44416,1.26464 0.58771,1.83505 0.60751,2.41407 -0.2699,7.46313 -0.2699,7.46313 0,0 1.82827,2.90532 2.4491,4.49451 0.38248,0.97906 0.21897,2.16195 0.7677,3.05847 0.38827,0.63435 1.68005,1.46827 1.68005,1.46827 0,0 0.0802,2.93085 0.15101,4.39501 0.0326,0.6735 0.12597,2.01893 0.12597,2.01893 0,0 0.76793,0.58512 1.21826,0.58398 0.36834,-9.3e-4 0.99402,-0.48267 0.99402,-0.48267 l 0.0585,-7.10144 c 0,0 -0.82928,-0.37565 -1.02636,-0.75097 -0.62725,-1.19458 0.0236,-2.70383 -0.11292,-4.04615 -0.093,-0.91387 -0.0959,-1.87903 -0.47937,-2.71374 -0.46811,-1.01895 -1.83865,-1.51979 -2.13208,-2.60205 -0.14396,-0.53097 0.25794,-1.63013 0.25794,-1.63013 0,0 1.58682,-0.17438 2.14648,0.28113 0.51014,0.41521 0.34193,1.28166 0.64819,1.86377 0.11764,0.22361 0.44898,0.61072 0.44898,0.61072 l 0.37109,-1.86426 1.74622,1.28137 c 0,0 0.26457,-0.8364 0.16406,-1.24158 -0.19485,-0.78552 -0.76857,-1.48084 -1.40613,-1.97937 -0.4831,-0.37775 -1.13892,-0.45541 -1.71252,-0.67236 -0.33438,-0.12647 -0.66296,-0.46109 -1.00781,-0.36682 -0.35064,0.0958 -0.49471,0.5085 -0.84079,0.61969 0,0 -0.83904,0.0957 -1.16336,-0.1207 -0.20099,-0.13409 -0.0606,-0.19772 -0.34594,-0.63695 -0.47845,-0.73652 -0.87206,-1.25306 -1.33778,-1.99766 -0.47868,-0.76522 -1.98032,-1.76718 -1.98032,-1.76718 z"
         id="path12"
         sodipodi:nodetypes="cscsscscsccsssscsscccsssssassc" /><path
         style="fill:#483e37;stroke-width:5"
         d="m 150.73044,106.73376 c 0,0 0.92121,5.45088 0.99679,8.20493 0.061,2.22327 -0.48763,4.43418 -0.44022,6.65778 0.0521,2.4413 0.17166,4.92127 0.79446,7.28237 0.28517,1.08113 1.20997,1.9683 1.32825,3.08013 0.094,0.88345 -0.51687,2.61471 -0.51687,2.61471 0,0 -1.59026,0.56536 -2.30949,0.27586 -1.20897,-0.48662 -2.47833,-3.02384 -2.47833,-3.02384 0,0 0.8127,-2.12022 1.43217,-3.06114 0.34199,-0.51945 1.23986,-1.39419 1.23986,-1.39419 0,0 -0.42079,-6.1899 -0.49546,-9.2901 -0.0358,-1.48447 0.0185,-2.96974 0.0228,-4.45463 0.005,-1.80125 -0.24476,-3.61978 0.004,-5.40378 0.0712,-0.51066 0.42204,-1.4881 0.42204,-1.4881 z"
         id="path13"
         sodipodi:nodetypes="csssscscscsssc" /><path
         style="fill:#483e37;stroke-width:5"
         d="m 142.89841,114.32981 c 0,0 2.08816,8.17495 2.45208,12.35918 0.0526,0.6049 -0.0927,1.21616 -0.0407,1.82111 0.22274,2.58886 1.50278,7.64904 1.50278,7.64904 0,0 0.15815,-4.94631 -0.0268,-7.40908 -0.13394,-1.78352 -0.45588,-3.54979 -0.7822,-5.30831 -0.71082,-3.83057 -2.55809,-11.40451 -2.55809,-11.40451 z"
         id="path14"
         sodipodi:nodetypes="csscsscc" /><path
         style="fill:#483e37;stroke-width:5"
         d="m 279.03821,114.81042 c 0,0 -2.27279,2.39587 -2.77271,3.9148 -0.70697,2.14803 -0.13342,6.78284 -0.13342,6.78284 -0.005,0.26131 0.52527,0.58215 0.52527,0.58215 0,0 2.81738,-1.30173 3.47619,-2.58716 0.90573,-1.76719 0.48611,-4.0093 0.0968,-5.95654 -0.19504,-0.97553 -1.19213,-2.73609 -1.19213,-2.73609 z"
         id="path15"
         sodipodi:nodetypes="csscssc" /><path
         style="fill:#483e37;stroke-width:5"
         d="m 290.9248,108.70239 c 0,0 0.0797,0.92575 -0.17163,1.27198 -0.26352,0.36301 -0.91558,0.24779 -1.21228,0.58422 -0.3456,0.39188 -0.49865,1.48609 -0.49865,1.48609 l 4.49524,-0.17969 c 0,0 -0.0715,-1.18649 -0.26453,-1.74072 -0.2027,-0.58182 -0.36635,-1.32967 -0.91785,-1.60437 -0.43022,-0.21429 -1.4303,0.18249 -1.4303,0.18249 z"
         id="path16"
         sodipodi:nodetypes="cssccssc" /><path
         style="fill:#483e37;stroke-width:5"
         d="m 74.802246,162.6261 c -0.515052,1.7829 -0.511011,3.7056 -0.363525,5.55554 0.117974,1.47977 0.142496,3.12377 0.991211,4.34168 0.439669,0.63093 1.93225,1.26049 1.93225,1.26049 l 1.816651,-1.30249 c 0,0 0.09895,1.17837 0.477051,1.57642 0.329971,0.34738 0.913372,0.67799 1.352539,0.48645 0.639275,-0.27882 0.875694,-1.22943 0.820556,-1.92468 -0.08002,-1.00898 -0.757758,-2.03438 -1.616211,-2.57056 -0.485563,-0.30328 -1.136701,-0.14144 -1.707641,-0.18359 -0.396136,-0.0293 -1.190674,-0.048 -1.190674,-0.048 0,0 -1.056572,-3.14754 -0.499268,-4.57776 0.126345,-0.32424 0.785523,-0.68762 0.785523,-0.68762 l -2.08667,-3.23779 c 0,0 -0.573712,0.83393 -0.711792,1.31191 z"
         id="path17"
         sodipodi:nodetypes="sssccssssscsccs" /><path
         style="fill:#483e37;stroke-width:5"
         d="m 84.143204,151.37575 c 0,0 1.464031,-0.56135 1.930474,-0.11636 0.515046,0.49136 0.276379,1.49186 -0.02805,2.13531 -0.104792,0.22149 -0.562181,0.47362 -0.562181,0.47362 0,0 -0.285018,-0.59801 -0.524633,-0.69269 -0.239616,-0.0947 -1.48672,-0.37436 -1.48672,-0.37436 z"
         id="path18"
         sodipodi:nodetypes="csscscc" /></g></g><g
     inkscape:groupmode="layer"
     id="layer2"
     inkscape:label="mask bg"><ellipse
       style="display:inline;fill:none;fill-opacity:1;stroke:#6c5d53;stroke-width:5.90338;stroke-dasharray:none;stroke-opacity:1"
       id="path19"
       inkscape:label="sky"
       ry="196.71625"
       rx="196.56339"
       cy="199.92352"
       cx="200.07642"
       clip-path="none" /></g><g
     inkscape:groupmode="layer"
     id="layer3"
     inkscape:label="Layer 3"
     style="fill:none;stroke:#000000;stroke-opacity:1;stroke-width:1;stroke-dasharray:none" /><g
     inkscape:groupmode="layer"
     id="layer6"
     inkscape:label="compass"
     transform="matrix(0.86204794,0,0,1,27.590408,17.391731)"><path
       style="fill:#917c6f;fill-opacity:1;stroke:none;stroke-width:1.54533;stroke-dasharray:none;stroke-opacity:1"
       d="m 199.53652,59.182087 6.10566,14.437432 10.03404,-5.259613 -5.00363,12.127368 16.95217,3.590353 -16.6079,6.288636 5.91702,11.185877 -12.71178,-6.508783 -4.06439,15.884863 -6.10769,-16.201033 -9.8911,6.294123 0.13921,-2.114073 6.26487,-11.395826 -18.18776,-2.489272 16.7077,-6.0053 -5.79685,-10.781623 11.3545,6.058627 3.38418,-2.098731 z"
       id="path49"
       sodipodi:nodetypes="ccccccccccccccccccc" /><path
       style="display:inline;fill:#483e37;fill-opacity:1;stroke:none;stroke-width:0.772663;stroke-dasharray:none;stroke-opacity:1"
       d="m 185.1534,69.905718 4.54634,8.240222 3.05456,-0.568286 0.56828,-3.054567 z m 8.24023,25.075859 -0.56829,-3.054568 -3.05457,-0.568293 -4.54633,8.240221 z m 21.45299,4.54632 -4.54633,-8.24022 -3.05457,0.568294 -0.56829,3.054566 z m -4.61737,-21.381957 4.54634,-8.240222 -8.24023,4.546331 0.56829,3.054567 z m 2.1311,12.78656 7.67192,13.78107 -13.78105,-7.671943 -6.25121,22.305433 -6.25121,-22.305433 -13.71002,7.671943 7.67193,-13.78107 -22.37647,-6.180172 22.30543,-6.251203 -7.60089,-13.781062 13.78107,7.671929 6.18016,-22.30543 6.25121,22.30543 13.78105,-7.671929 -7.67192,13.781062 22.30542,6.180172 z m -6.89053,-0.710363 18.32738,-5.54084 -23.79719,0.07101 5.46981,-5.469802 -5.46981,-18.327392 v 23.797194 l -5.46981,-5.469802 -18.3274,5.469802 h 23.79721 l -5.46981,5.469809 5.46981,18.256354 V 84.752305 Z"
       id="path40" /><text
       xml:space="preserve"
       style="font-size:42.6667px;font-family:'DejaVu Math TeX Gyre';-inkscape-font-specification:'DejaVu Math TeX Gyre';display:none;fill:#ffccaa;fill-opacity:1;stroke:#d38d5f;stroke-width:1;stroke-dasharray:none;stroke-opacity:1"
       x="147.03177"
       y="123.42538"
       id="text49"><tspan
         sodipodi:role="line"
         id="tspan49"
         x="0"
         y="0"
         style="font-size:42.6667px;stroke-width:1;stroke-dasharray:none">∃</tspan></text><text
       xml:space="preserve"
       style="font-size:42.6667px;font-family:'DejaVu Math TeX Gyre';-inkscape-font-specification:'DejaVu Math TeX Gyre';display:none;fill:#ffccaa;fill-opacity:1;stroke:#d38d5f;stroke-width:1;stroke-dasharray:none;stroke-opacity:1"
       x="221.92667"
       y="122.96165"
       id="text50"><tspan
         sodipodi:role="line"
         id="tspan50"
         x="0"
         y="0"
         style="font-size:42.6667px;stroke-width:1;stroke-dasharray:none">∀</tspan></text></g></svg>
